<?xml version="1.0" encoding="UTF-8"?>
<svg width="150px" height="150px" viewBox="0 0 150 150" version="1.1" xmlns="http://www.w3.org/2000/svg" xmlns:xlink="http://www.w3.org/1999/xlink">
    <!-- Generator: Sketch 49.3 (51167) - http://www.bohemiancoding.com/sketch -->
    <title>icon big</title>
    <desc>Created with Sketch.</desc>
    <defs>
        <polygon id="path-1" points="0.121019807 0.00824438504 109.022956 0.00824438504 109.022956 108.380274 0.121019807 108.380274"></polygon>
    </defs>
    <g id="icon-big" stroke="none" stroke-width="1" fill="none" fill-rule="evenodd">
        <rect id="Rectangle" fill="#001B38" x="0" y="0" width="150" height="150" rx="20"></rect>
        <g id="logo" transform="translate(20.507812, 20.800781)">
            <g id="Group-25">
                <mask id="mask-2" fill="white">
                    <use xlink:href="#path-1"></use>
                </mask>
                <g id="Clip-24"></g>
                <path d="M9.86181588,0.00783216579 L10.24686,0.00783216579 C13.3231164,0.00783216579 16.0348099,1.49182147 18.3860365,4.45980009 C19.2421451,5.61813619 29.7325483,19.0358728 49.8613422,44.71301 C52.9785608,48.6249707 54.5637955,50.6036232 54.6047576,50.6448451 C69.2200479,32.1114675 81.6971147,16.2204153 92.0400542,2.97581078 C94.1741815,0.997158371 96.4393877,0.00783216579 98.8356727,0.00783216579 L99.474682,0.00783216579 C102.763942,0.00783216579 105.500212,1.6402204 107.679398,4.90911907 C108.576469,6.54150731 109.022956,8.17801774 109.022956,9.81040598 C109.022956,12.6505966 107.724456,15.4660541 105.115168,18.2650228 L61.5273587,73.8033227 C59.4341935,75.695409 57.1280252,76.6435133 54.6047576,76.6435133 C50.9714161,76.6435133 48.0672006,74.965781 45.8839188,71.6103162 L20.1842743,38.9707959 L20.1842743,98.0583035 C20.1842743,102.963713 17.9149719,106.294444 13.3886558,108.058743 C12.7455503,108.273097 12.2744857,108.380274 11.9795583,108.380274 L8.77222304,108.380274 C7.19108457,108.380274 5.35188464,107.45278 3.25871947,105.606038 C1.3785574,103.582041 0.440524472,101.15407 0.440524472,98.3180016 L0.440524472,12.5846415 L0.121019807,9.94231614 C0.121019807,6.19936533 1.89058411,3.25611987 5.43790513,1.10433538 C6.89206098,0.370585108 8.36669789,0.00783216579 9.86181588,0.00783216579" id="Fill-23" fill="#F1F1F2" mask="url(#mask-2)"></path>
            </g>
            <path d="M100.186245,89.6484375 C103.196823,89.6484375 105.804578,91.0818637 108.017989,93.9487161 C108.857559,95.4253414 109.277344,96.9608747 109.277344,98.559243 C109.277344,101.712781 107.598204,104.273312 104.235685,106.240837 C102.730396,106.896678 101.360795,107.226563 100.122641,107.226563 L99.3890776,107.226563 C96.1622464,107.226563 93.507849,105.706738 91.4258856,102.674943 C90.6329586,101.241517 90.234375,99.8080911 90.234375,98.3746649 C90.234375,95.2211273 91.871112,92.6802321 95.144586,90.7559065 C96.6032325,90.0175938 98.0406777,89.6484375 99.4569217,89.6484375 L100.186245,89.6484375 Z" id="Fill-26" fill="#1E8DE0"></path>
        </g>
    </g>
</svg>